<svg xmlns="http://www.w3.org/2000/svg" viewBox="0 0 276.97 65.17"><defs><style>.cls-1{fill:#7b7979;}.cls-1,.cls-2,.cls-3{fill-rule:evenodd;}.cls-2{fill:#94d222;}.cls-3{fill:#fff;}</style></defs><g id="Capa_2" data-name="Capa 2"><g id="Body"><path class="cls-1" d="M45.52,53.32C22.93,59.85,26.46,60.79,9.93,44.1c-6.26-4.94.86-18.4,1.6-24.27a9.09,9.09,0,0,1,6.34-6.46C40.47,6.84,36.93,5.9,53.5,22.63c6.22,4.86-.9,18.32-1.64,24.23A9,9,0,0,1,45.52,53.32Z"/><path class="cls-2" d="M26.46,59.27a5.91,5.91,0,0,1-4.2-1.71L7.56,43.09A5.94,5.94,0,0,1,6,37.33l5.17-20a6,6,0,0,1,4.2-4.24l20-5.52a6.14,6.14,0,0,1,5.8,1.51l14.7,14.47a6.14,6.14,0,0,1,1.6,5.8l-5.22,20A6,6,0,0,1,48,53.59L28.1,59.07A5.76,5.76,0,0,1,26.46,59.27ZM36.89,9.21a3.55,3.55,0,0,0-1.09.15L15.85,14.85A4.19,4.19,0,0,0,13,17.77l-5.18,20a4.09,4.09,0,0,0,1.09,4L23.59,56.24a4.13,4.13,0,0,0,4,1l20-5.49a4.2,4.2,0,0,0,2.88-2.91l5.17-20a4.12,4.12,0,0,0-1.09-4L39.77,10.38A4.24,4.24,0,0,0,36.89,9.21Z"/><path class="cls-2" d="M43.58,35.54l13.81-3a2.64,2.64,0,0,1,3.11,3.34L54.35,57.21a5.7,5.7,0,0,1-3.85,3.85l-14,4a2.66,2.66,0,0,1-3.31-3.26l6.15-22.25A5.64,5.64,0,0,1,43.58,35.54Z"/><path class="cls-2" d="M20.55,28.81,10.24,19.09a2.68,2.68,0,0,0-4.43,1.24L.17,41.84a5.64,5.64,0,0,0,1.36,5.25l10,10.62A2.66,2.66,0,0,0,16,56.62l6.15-22.21A5.6,5.6,0,0,0,20.55,28.81Z"/><path class="cls-2" d="M21.06,9,35.33,23.1a5.68,5.68,0,0,0,5.25,1.55l14.55-3.42A3.13,3.13,0,0,0,56.41,16L41.75,1.62A5.48,5.48,0,0,0,36.46.19L22.3,3.8A3.13,3.13,0,0,0,21.06,9Z"/><path class="cls-3" d="M42.57,45.23a1,1,0,0,1-.94-.74.94.94,0,0,1,.74-1.09L56,40.4a1,1,0,0,1,1.13.74,1,1,0,0,1-.74,1.13l-13.58,3Z"/><path class="cls-3" d="M41.32,49.08a.92.92,0,0,1-.89-.74.93.93,0,0,1,.7-1.13l13.61-3a.93.93,0,0,1,1.09.73,1,1,0,0,1-.7,1.17L41.56,49A.51.51,0,0,1,41.32,49.08Z"/><path class="cls-3" d="M40.51,52.89a1,1,0,0,1-.94-.74.94.94,0,0,1,.74-1.09l13.58-3a.92.92,0,0,1,1.12.7,1,1,0,0,1-.73,1.12l-13.58,3Z"/><path class="cls-3" d="M39.26,57a.9.9,0,0,1-.89-.7,1,1,0,0,1,.7-1.16l9.8-2.3a.94.94,0,0,1,.43,1.83L39.49,57Z"/><path class="cls-3" d="M3.71,44.57H3.44a1,1,0,0,1-.66-1.17l5-18.32A1,1,0,0,1,9,24.42a1,1,0,0,1,.66,1.17L4.6,43.91A1,1,0,0,1,3.71,44.57Z"/><path class="cls-3" d="M6.51,48.57c-.08,0-.19,0-.27,0a1,1,0,0,1-.66-1.16L11.1,27.72a.93.93,0,0,1,1.79.51L7.4,47.87A.93.93,0,0,1,6.51,48.57Z"/><path class="cls-3" d="M13.43,48c-.07,0-.15,0-.27,0a1,1,0,0,1-.66-1.17L15,37.49a1,1,0,0,1,1.13-.66,1,1,0,0,1,.7,1.16l-2.53,9.34A1,1,0,0,1,13.43,48Z"/><path class="cls-3" d="M25.76,8.24a.89.89,0,0,1-.89-.7.94.94,0,0,1,.66-1.17L39.11,2.79a1,1,0,0,1,1.16.7.93.93,0,0,1-.7,1.13L26,8.2A.51.51,0,0,1,25.76,8.24Z"/><path class="cls-3" d="M28.56,11.43a.89.89,0,0,1-.89-.74.89.89,0,0,1,.66-1.13L41.91,6a.94.94,0,0,1,1.16.66,1,1,0,0,1-.7,1.17L28.8,11.39A.51.51,0,0,1,28.56,11.43Z"/><path class="cls-3" d="M31.75,14.62a.88.88,0,0,1-.85-.7.93.93,0,0,1,.66-1.17L38.44,11a1,1,0,0,1,.43,1.87L32,14.58A.68.68,0,0,1,31.75,14.62Z"/><path class="cls-1" d="M97.45,45.07a16.63,16.63,0,1,1-8.87-30.18A3.57,3.57,0,0,1,92,18.54a3.5,3.5,0,0,1-3.7,3.35,9.73,9.73,0,0,0-5.91,1.75,9.59,9.59,0,0,0,11,15.68A9.43,9.43,0,0,0,97,34.38a3.53,3.53,0,0,1,6.73,2.1A16.19,16.19,0,0,1,97.45,45.07Z"/><path class="cls-1" d="M124.56,45.81a3.5,3.5,0,0,1-3.46,3.5h-11a3.54,3.54,0,0,1-3.54-3.5V20.1a3.54,3.54,0,0,1,3.54-3.5h11a3.5,3.5,0,0,1,3.46,3.5,3.56,3.56,0,0,1-3.46,3.62h-7.51V29.9h7.12a3.08,3.08,0,0,1,0,6.15h-7.12v6.18h7.51A3.52,3.52,0,0,1,124.56,45.81Z"/><path class="cls-1" d="M146.89,48.77a3.47,3.47,0,0,1-4.82-1.17L135.8,36.9h-.66v8.87a3.54,3.54,0,1,1-7.08,0V20.14a3.54,3.54,0,0,1,3.5-3.54h6.89A10.13,10.13,0,0,1,148.6,26.75a10,10,0,0,1-5.33,8.91l4.9,8.32A3.48,3.48,0,0,1,146.89,48.77Zm-8.44-25.05h-3.31v6.11h3.31a3.06,3.06,0,1,0,0-6.11Z"/><path class="cls-1" d="M171.16,20.14a3.57,3.57,0,0,1-3.54,3.58H164.2V45.77a3.5,3.5,0,1,1-7,0V23.72h-3.43a3.58,3.58,0,0,1-3.58-3.58,3.54,3.54,0,0,1,3.58-3.54h13.85A3.53,3.53,0,0,1,171.16,20.14Z"/><path class="cls-1" d="M177.27,49.31a3.47,3.47,0,0,1-3.46-3.5V20.1a3.47,3.47,0,0,1,3.46-3.5,3.54,3.54,0,0,1,3.54,3.5V45.81A3.54,3.54,0,0,1,177.27,49.31Z"/><path class="cls-1" d="M208,43.83a3.5,3.5,0,0,1-5.76,4l-6.11-8.68L190,47.8a3.36,3.36,0,0,1-4.9.85,3.51,3.51,0,0,1-.78-4.82L191.81,33l-7.5-10.85a3.49,3.49,0,1,1,5.68-4l6.1,8.75,6.11-8.75a3.52,3.52,0,0,1,5.76,4L200.45,33Z"/><path class="cls-2" d="M216.9,46.08a3.22,3.22,0,0,1-3.22,3.23,3.17,3.17,0,0,1-3.12-3.23A3.12,3.12,0,0,1,213.68,43,3.17,3.17,0,0,1,216.9,46.08Z"/><path class="cls-2" d="M251.68,36.71v9.06a3.54,3.54,0,0,1-7.08,0V36.71A2.66,2.66,0,0,0,241.91,34a2.71,2.71,0,0,0-2.68,2.68v9.06a3.52,3.52,0,1,1-7,0V36.71A2.73,2.73,0,0,0,229.43,34a2.69,2.69,0,0,0-2.69,2.68v9.06a3.5,3.5,0,1,1-7,0V30.6a3.3,3.3,0,0,1,3.31-3.38,3,3,0,0,1,2.1.78,9.25,9.25,0,0,1,4.28-1,9.82,9.82,0,0,1,6.26,2.3,9.71,9.71,0,0,1,16,7.43Z"/><path class="cls-2" d="M272.91,36.4l-9.68,6.65a6.3,6.3,0,0,0,8-3.23,2.93,2.93,0,0,1,4-1.44,3,3,0,0,1,1.48,4,12.77,12.77,0,0,1-4.24,4.94,12,12,0,0,1-12.68.74,11.56,11.56,0,0,1-5.29-7.51A11.28,11.28,0,0,1,274,30.84C275.71,32.86,275,35,272.91,36.4Zm-5.05-2.61a4.62,4.62,0,0,0-5.6-.19,4.76,4.76,0,0,0-1.87,5.29Z"/></g></g></svg>